<mxfile host="Electron" agent="Mozilla/5.0 (Windows NT 10.0; Win64; x64) AppleWebKit/537.36 (KHTML, like Gecko) draw.io/26.0.4 Chrome/128.0.6613.186 Electron/32.2.5 Safari/537.36" version="26.0.4">
  <diagram name="Страница — 1" id="EGRbb8BmP0Wpn_4OHpGy">
    <mxGraphModel dx="1750" dy="1195" grid="1" gridSize="10" guides="1" tooltips="1" connect="1" arrows="1" fold="1" page="1" pageScale="1" pageWidth="827" pageHeight="1169" math="0" shadow="0">
      <root>
        <mxCell id="0" />
        <mxCell id="1" parent="0" />
        <mxCell id="PY2_DEi8Nq0LcXyKeN3E-4" style="edgeStyle=orthogonalEdgeStyle;rounded=0;orthogonalLoop=1;jettySize=auto;html=1;entryX=0.5;entryY=0;entryDx=0;entryDy=0;" edge="1" parent="1" source="PY2_DEi8Nq0LcXyKeN3E-1" target="PY2_DEi8Nq0LcXyKeN3E-3">
          <mxGeometry relative="1" as="geometry" />
        </mxCell>
        <mxCell id="PY2_DEi8Nq0LcXyKeN3E-1" value="Начало" style="ellipse;whiteSpace=wrap;html=1;" vertex="1" parent="1">
          <mxGeometry x="100" y="10" width="70" height="40" as="geometry" />
        </mxCell>
        <mxCell id="PY2_DEi8Nq0LcXyKeN3E-2" value="&lt;div&gt;#include &amp;lt;iostream&amp;gt;&lt;/div&gt;&lt;div&gt;#include &amp;lt;clocale&amp;gt;&lt;/div&gt;&lt;div&gt;#include &amp;lt;stdlib.h&amp;gt;&lt;/div&gt;&lt;div&gt;#include &amp;lt;ctime&amp;gt;&lt;/div&gt;&lt;div&gt;using namespace std;&lt;/div&gt;" style="text;html=1;align=center;verticalAlign=middle;whiteSpace=wrap;rounded=0;" vertex="1" parent="1">
          <mxGeometry x="200" y="14" width="130" height="90" as="geometry" />
        </mxCell>
        <mxCell id="PY2_DEi8Nq0LcXyKeN3E-14" style="edgeStyle=orthogonalEdgeStyle;rounded=0;orthogonalLoop=1;jettySize=auto;html=1;" edge="1" parent="1" source="PY2_DEi8Nq0LcXyKeN3E-3" target="PY2_DEi8Nq0LcXyKeN3E-13">
          <mxGeometry relative="1" as="geometry" />
        </mxCell>
        <mxCell id="PY2_DEi8Nq0LcXyKeN3E-3" value="int main()" style="shape=process;whiteSpace=wrap;html=1;backgroundOutline=1;" vertex="1" parent="1">
          <mxGeometry x="100" y="90" width="70" height="20" as="geometry" />
        </mxCell>
        <mxCell id="PY2_DEi8Nq0LcXyKeN3E-5" value="" style="endArrow=none;html=1;rounded=0;exitX=0;exitY=0;exitDx=0;exitDy=0;entryX=1;entryY=0;entryDx=0;entryDy=0;" edge="1" parent="1" source="PY2_DEi8Nq0LcXyKeN3E-2" target="PY2_DEi8Nq0LcXyKeN3E-2">
          <mxGeometry width="50" height="50" relative="1" as="geometry">
            <mxPoint x="240" y="190" as="sourcePoint" />
            <mxPoint x="290" y="140" as="targetPoint" />
          </mxGeometry>
        </mxCell>
        <mxCell id="PY2_DEi8Nq0LcXyKeN3E-6" value="" style="endArrow=none;html=1;rounded=0;entryX=1;entryY=1;entryDx=0;entryDy=0;exitX=0;exitY=1;exitDx=0;exitDy=0;" edge="1" parent="1" source="PY2_DEi8Nq0LcXyKeN3E-2" target="PY2_DEi8Nq0LcXyKeN3E-2">
          <mxGeometry width="50" height="50" relative="1" as="geometry">
            <mxPoint x="210" y="120" as="sourcePoint" />
            <mxPoint x="320" y="160" as="targetPoint" />
          </mxGeometry>
        </mxCell>
        <mxCell id="PY2_DEi8Nq0LcXyKeN3E-7" value="" style="endArrow=none;html=1;rounded=0;entryX=0;entryY=0;entryDx=0;entryDy=0;exitX=0;exitY=1;exitDx=0;exitDy=0;" edge="1" parent="1" source="PY2_DEi8Nq0LcXyKeN3E-2" target="PY2_DEi8Nq0LcXyKeN3E-2">
          <mxGeometry width="50" height="50" relative="1" as="geometry">
            <mxPoint x="220" y="200" as="sourcePoint" />
            <mxPoint x="270" y="150" as="targetPoint" />
          </mxGeometry>
        </mxCell>
        <mxCell id="PY2_DEi8Nq0LcXyKeN3E-9" value="" style="endArrow=none;dashed=1;html=1;rounded=0;entryX=0;entryY=0.5;entryDx=0;entryDy=0;" edge="1" parent="1" target="PY2_DEi8Nq0LcXyKeN3E-2">
          <mxGeometry width="50" height="50" relative="1" as="geometry">
            <mxPoint x="140" y="60" as="sourcePoint" />
            <mxPoint x="280" y="130" as="targetPoint" />
          </mxGeometry>
        </mxCell>
        <mxCell id="PY2_DEi8Nq0LcXyKeN3E-22" style="edgeStyle=orthogonalEdgeStyle;rounded=0;orthogonalLoop=1;jettySize=auto;html=1;" edge="1" parent="1" source="PY2_DEi8Nq0LcXyKeN3E-10" target="PY2_DEi8Nq0LcXyKeN3E-19">
          <mxGeometry relative="1" as="geometry" />
        </mxCell>
        <mxCell id="PY2_DEi8Nq0LcXyKeN3E-10" value="int mac[n][m];" style="rounded=0;whiteSpace=wrap;html=1;" vertex="1" parent="1">
          <mxGeometry x="90" y="250" width="90" height="20" as="geometry" />
        </mxCell>
        <mxCell id="PY2_DEi8Nq0LcXyKeN3E-18" style="edgeStyle=orthogonalEdgeStyle;rounded=0;orthogonalLoop=1;jettySize=auto;html=1;entryX=0.5;entryY=0;entryDx=0;entryDy=0;" edge="1" parent="1" source="PY2_DEi8Nq0LcXyKeN3E-11" target="PY2_DEi8Nq0LcXyKeN3E-10">
          <mxGeometry relative="1" as="geometry" />
        </mxCell>
        <mxCell id="PY2_DEi8Nq0LcXyKeN3E-11" value="const int n = 4, m = 5;&amp;nbsp;&amp;nbsp;" style="rounded=0;whiteSpace=wrap;html=1;" vertex="1" parent="1">
          <mxGeometry x="70" y="210" width="130" height="20" as="geometry" />
        </mxCell>
        <mxCell id="PY2_DEi8Nq0LcXyKeN3E-17" style="edgeStyle=orthogonalEdgeStyle;rounded=0;orthogonalLoop=1;jettySize=auto;html=1;entryX=0.5;entryY=0;entryDx=0;entryDy=0;" edge="1" parent="1" source="PY2_DEi8Nq0LcXyKeN3E-12" target="PY2_DEi8Nq0LcXyKeN3E-11">
          <mxGeometry relative="1" as="geometry" />
        </mxCell>
        <mxCell id="PY2_DEi8Nq0LcXyKeN3E-12" value="srand(time(0));" style="rounded=0;whiteSpace=wrap;html=1;" vertex="1" parent="1">
          <mxGeometry x="90" y="170" width="90" height="20" as="geometry" />
        </mxCell>
        <mxCell id="PY2_DEi8Nq0LcXyKeN3E-15" style="edgeStyle=orthogonalEdgeStyle;rounded=0;orthogonalLoop=1;jettySize=auto;html=1;" edge="1" parent="1" source="PY2_DEi8Nq0LcXyKeN3E-13" target="PY2_DEi8Nq0LcXyKeN3E-12">
          <mxGeometry relative="1" as="geometry" />
        </mxCell>
        <mxCell id="PY2_DEi8Nq0LcXyKeN3E-13" value="setlocale(0, &quot;rus&quot;);" style="rounded=0;whiteSpace=wrap;html=1;" vertex="1" parent="1">
          <mxGeometry x="80" y="130" width="110" height="20" as="geometry" />
        </mxCell>
        <mxCell id="PY2_DEi8Nq0LcXyKeN3E-23" style="edgeStyle=orthogonalEdgeStyle;rounded=0;orthogonalLoop=1;jettySize=auto;html=1;entryX=0.5;entryY=0;entryDx=0;entryDy=0;" edge="1" parent="1" source="PY2_DEi8Nq0LcXyKeN3E-19" target="PY2_DEi8Nq0LcXyKeN3E-20">
          <mxGeometry relative="1" as="geometry" />
        </mxCell>
        <mxCell id="PY2_DEi8Nq0LcXyKeN3E-35" style="edgeStyle=orthogonalEdgeStyle;rounded=0;orthogonalLoop=1;jettySize=auto;html=1;entryX=0.5;entryY=0;entryDx=0;entryDy=0;" edge="1" parent="1" source="PY2_DEi8Nq0LcXyKeN3E-19" target="PY2_DEi8Nq0LcXyKeN3E-38">
          <mxGeometry relative="1" as="geometry">
            <mxPoint x="270" y="420" as="targetPoint" />
            <Array as="points">
              <mxPoint x="260" y="300" />
              <mxPoint x="260" y="430" />
            </Array>
          </mxGeometry>
        </mxCell>
        <mxCell id="PY2_DEi8Nq0LcXyKeN3E-19" value="for (int i = 0; i &amp;lt; n; i++)" style="shape=hexagon;perimeter=hexagonPerimeter2;whiteSpace=wrap;html=1;fixedSize=1;" vertex="1" parent="1">
          <mxGeometry x="65" y="290" width="140" height="20" as="geometry" />
        </mxCell>
        <mxCell id="PY2_DEi8Nq0LcXyKeN3E-24" style="edgeStyle=orthogonalEdgeStyle;rounded=0;orthogonalLoop=1;jettySize=auto;html=1;entryX=0.5;entryY=0;entryDx=0;entryDy=0;" edge="1" parent="1" source="PY2_DEi8Nq0LcXyKeN3E-20" target="PY2_DEi8Nq0LcXyKeN3E-21">
          <mxGeometry relative="1" as="geometry" />
        </mxCell>
        <mxCell id="PY2_DEi8Nq0LcXyKeN3E-32" style="edgeStyle=orthogonalEdgeStyle;rounded=0;orthogonalLoop=1;jettySize=auto;html=1;entryX=0;entryY=0.5;entryDx=0;entryDy=0;" edge="1" parent="1" source="PY2_DEi8Nq0LcXyKeN3E-20" target="PY2_DEi8Nq0LcXyKeN3E-19">
          <mxGeometry relative="1" as="geometry">
            <mxPoint x="60" y="300" as="targetPoint" />
            <Array as="points">
              <mxPoint x="230" y="340" />
              <mxPoint x="230" y="420" />
              <mxPoint x="30" y="420" />
              <mxPoint x="30" y="300" />
            </Array>
          </mxGeometry>
        </mxCell>
        <mxCell id="PY2_DEi8Nq0LcXyKeN3E-20" value="for (int j = 0; j &amp;lt; m; j++)" style="shape=hexagon;perimeter=hexagonPerimeter2;whiteSpace=wrap;html=1;fixedSize=1;" vertex="1" parent="1">
          <mxGeometry x="60" y="330" width="150" height="20" as="geometry" />
        </mxCell>
        <mxCell id="PY2_DEi8Nq0LcXyKeN3E-25" style="edgeStyle=orthogonalEdgeStyle;rounded=0;orthogonalLoop=1;jettySize=auto;html=1;entryX=0;entryY=0.5;entryDx=0;entryDy=0;" edge="1" parent="1" source="PY2_DEi8Nq0LcXyKeN3E-21" target="PY2_DEi8Nq0LcXyKeN3E-20">
          <mxGeometry relative="1" as="geometry">
            <mxPoint x="30" y="330" as="targetPoint" />
            <Array as="points">
              <mxPoint x="135" y="410" />
              <mxPoint x="40" y="410" />
              <mxPoint x="40" y="340" />
            </Array>
          </mxGeometry>
        </mxCell>
        <mxCell id="PY2_DEi8Nq0LcXyKeN3E-21" value="mac[i][j] = rand() % 100 - 50;" style="rounded=0;whiteSpace=wrap;html=1;" vertex="1" parent="1">
          <mxGeometry x="55" y="370" width="160" height="20" as="geometry" />
        </mxCell>
        <mxCell id="PY2_DEi8Nq0LcXyKeN3E-26" value="{" style="text;html=1;align=center;verticalAlign=middle;whiteSpace=wrap;rounded=0;" vertex="1" parent="1">
          <mxGeometry x="110" y="110" width="20" height="20" as="geometry" />
        </mxCell>
        <mxCell id="PY2_DEi8Nq0LcXyKeN3E-27" value="{" style="text;html=1;align=center;verticalAlign=middle;whiteSpace=wrap;rounded=0;" vertex="1" parent="1">
          <mxGeometry x="100" y="310" width="20" height="20" as="geometry" />
        </mxCell>
        <mxCell id="PY2_DEi8Nq0LcXyKeN3E-28" value="{" style="text;html=1;align=center;verticalAlign=middle;whiteSpace=wrap;rounded=0;" vertex="1" parent="1">
          <mxGeometry x="100" y="350" width="20" height="20" as="geometry" />
        </mxCell>
        <mxCell id="PY2_DEi8Nq0LcXyKeN3E-29" value="1" style="text;html=1;align=center;verticalAlign=middle;whiteSpace=wrap;rounded=0;" vertex="1" parent="1">
          <mxGeometry x="110" y="310" width="20" height="20" as="geometry" />
        </mxCell>
        <mxCell id="PY2_DEi8Nq0LcXyKeN3E-30" value="1" style="text;html=1;align=center;verticalAlign=middle;whiteSpace=wrap;rounded=0;" vertex="1" parent="1">
          <mxGeometry x="110" y="350" width="20" height="20" as="geometry" />
        </mxCell>
        <mxCell id="PY2_DEi8Nq0LcXyKeN3E-31" value="}" style="text;html=1;align=center;verticalAlign=middle;whiteSpace=wrap;rounded=0;" vertex="1" parent="1">
          <mxGeometry x="140" y="390" width="20" height="20" as="geometry" />
        </mxCell>
        <mxCell id="PY2_DEi8Nq0LcXyKeN3E-33" value="0" style="text;html=1;align=center;verticalAlign=middle;whiteSpace=wrap;rounded=0;" vertex="1" parent="1">
          <mxGeometry x="339" y="500" width="20" height="20" as="geometry" />
        </mxCell>
        <mxCell id="PY2_DEi8Nq0LcXyKeN3E-34" value="}" style="text;html=1;align=center;verticalAlign=middle;whiteSpace=wrap;rounded=0;" vertex="1" parent="1">
          <mxGeometry x="230" y="400" width="20" height="20" as="geometry" />
        </mxCell>
        <mxCell id="PY2_DEi8Nq0LcXyKeN3E-36" value="0" style="text;html=1;align=center;verticalAlign=middle;whiteSpace=wrap;rounded=0;" vertex="1" parent="1">
          <mxGeometry x="205" y="280" width="20" height="20" as="geometry" />
        </mxCell>
        <mxCell id="PY2_DEi8Nq0LcXyKeN3E-41" style="edgeStyle=orthogonalEdgeStyle;rounded=0;orthogonalLoop=1;jettySize=auto;html=1;entryX=0.5;entryY=0;entryDx=0;entryDy=0;" edge="1" parent="1" source="PY2_DEi8Nq0LcXyKeN3E-38" target="PY2_DEi8Nq0LcXyKeN3E-40">
          <mxGeometry relative="1" as="geometry" />
        </mxCell>
        <mxCell id="PY2_DEi8Nq0LcXyKeN3E-38" value="cout &amp;lt;&amp;lt; &quot;Начальная матрица: &quot; &amp;lt;&amp;lt; endl;" style="shape=parallelogram;perimeter=parallelogramPerimeter;whiteSpace=wrap;html=1;fixedSize=1;" vertex="1" parent="1">
          <mxGeometry x="135" y="430" width="250" height="20" as="geometry" />
        </mxCell>
        <mxCell id="PY2_DEi8Nq0LcXyKeN3E-51" style="edgeStyle=orthogonalEdgeStyle;rounded=0;orthogonalLoop=1;jettySize=auto;html=1;entryX=0.5;entryY=0;entryDx=0;entryDy=0;" edge="1" parent="1" source="PY2_DEi8Nq0LcXyKeN3E-39" target="PY2_DEi8Nq0LcXyKeN3E-49">
          <mxGeometry relative="1" as="geometry" />
        </mxCell>
        <mxCell id="PY2_DEi8Nq0LcXyKeN3E-58" style="edgeStyle=orthogonalEdgeStyle;rounded=0;orthogonalLoop=1;jettySize=auto;html=1;entryX=0.5;entryY=0;entryDx=0;entryDy=0;" edge="1" parent="1" source="PY2_DEi8Nq0LcXyKeN3E-39" target="PY2_DEi8Nq0LcXyKeN3E-50">
          <mxGeometry relative="1" as="geometry">
            <mxPoint x="360" y="570" as="targetPoint" />
            <Array as="points">
              <mxPoint x="364" y="520" />
            </Array>
          </mxGeometry>
        </mxCell>
        <mxCell id="PY2_DEi8Nq0LcXyKeN3E-39" value="for (int h = 0; h &amp;lt; m; h++)" style="shape=hexagon;perimeter=hexagonPerimeter2;whiteSpace=wrap;html=1;fixedSize=1;" vertex="1" parent="1">
          <mxGeometry x="179" y="510" width="160" height="20" as="geometry" />
        </mxCell>
        <mxCell id="PY2_DEi8Nq0LcXyKeN3E-46" style="edgeStyle=orthogonalEdgeStyle;rounded=0;orthogonalLoop=1;jettySize=auto;html=1;" edge="1" parent="1" source="PY2_DEi8Nq0LcXyKeN3E-40" target="PY2_DEi8Nq0LcXyKeN3E-39">
          <mxGeometry relative="1" as="geometry" />
        </mxCell>
        <mxCell id="PY2_DEi8Nq0LcXyKeN3E-60" style="edgeStyle=orthogonalEdgeStyle;rounded=0;orthogonalLoop=1;jettySize=auto;html=1;entryX=0.5;entryY=0;entryDx=0;entryDy=0;" edge="1" parent="1" source="PY2_DEi8Nq0LcXyKeN3E-40" target="PY2_DEi8Nq0LcXyKeN3E-63">
          <mxGeometry relative="1" as="geometry">
            <mxPoint x="430" y="510" as="targetPoint" />
          </mxGeometry>
        </mxCell>
        <mxCell id="PY2_DEi8Nq0LcXyKeN3E-40" value="for (int k = 0; k &amp;lt; n; k++)" style="shape=hexagon;perimeter=hexagonPerimeter2;whiteSpace=wrap;html=1;fixedSize=1;" vertex="1" parent="1">
          <mxGeometry x="185" y="470" width="150" height="20" as="geometry" />
        </mxCell>
        <mxCell id="PY2_DEi8Nq0LcXyKeN3E-47" value="Actor" style="shape=umlActor;verticalLabelPosition=bottom;verticalAlign=top;html=1;outlineConnect=0;rotation=-170;" vertex="1" parent="1">
          <mxGeometry x="588.71" y="200.98999999999998" width="106.29" height="129.01" as="geometry" />
        </mxCell>
        <mxCell id="PY2_DEi8Nq0LcXyKeN3E-57" style="edgeStyle=orthogonalEdgeStyle;rounded=0;orthogonalLoop=1;jettySize=auto;html=1;entryX=0;entryY=0.5;entryDx=0;entryDy=0;" edge="1" parent="1" source="PY2_DEi8Nq0LcXyKeN3E-49" target="PY2_DEi8Nq0LcXyKeN3E-39">
          <mxGeometry relative="1" as="geometry">
            <mxPoint x="160" y="530" as="targetPoint" />
            <Array as="points">
              <mxPoint x="259" y="590" />
              <mxPoint x="159" y="590" />
              <mxPoint x="159" y="520" />
            </Array>
          </mxGeometry>
        </mxCell>
        <mxCell id="PY2_DEi8Nq0LcXyKeN3E-49" value="cout &amp;lt;&amp;lt; mac[k][h] &amp;lt;&amp;lt; &#39; &#39;;" style="shape=parallelogram;perimeter=parallelogramPerimeter;whiteSpace=wrap;html=1;fixedSize=1;" vertex="1" parent="1">
          <mxGeometry x="179" y="550" width="160" height="20" as="geometry" />
        </mxCell>
        <mxCell id="PY2_DEi8Nq0LcXyKeN3E-59" style="edgeStyle=orthogonalEdgeStyle;rounded=0;orthogonalLoop=1;jettySize=auto;html=1;entryX=0;entryY=0.5;entryDx=0;entryDy=0;" edge="1" parent="1" source="PY2_DEi8Nq0LcXyKeN3E-50" target="PY2_DEi8Nq0LcXyKeN3E-40">
          <mxGeometry relative="1" as="geometry">
            <mxPoint x="180" y="480" as="targetPoint" />
            <Array as="points">
              <mxPoint x="364" y="610" />
              <mxPoint x="150" y="610" />
              <mxPoint x="150" y="480" />
            </Array>
          </mxGeometry>
        </mxCell>
        <mxCell id="PY2_DEi8Nq0LcXyKeN3E-50" value="cout &amp;lt;&amp;lt; &#39;\n&#39;;" style="shape=parallelogram;perimeter=parallelogramPerimeter;whiteSpace=wrap;html=1;fixedSize=1;" vertex="1" parent="1">
          <mxGeometry x="314" y="570" width="100" height="20" as="geometry" />
        </mxCell>
        <mxCell id="PY2_DEi8Nq0LcXyKeN3E-52" value="{" style="text;html=1;align=center;verticalAlign=middle;whiteSpace=wrap;rounded=0;" vertex="1" parent="1">
          <mxGeometry x="230" y="530" width="20" height="20" as="geometry" />
        </mxCell>
        <mxCell id="PY2_DEi8Nq0LcXyKeN3E-53" value="1" style="text;html=1;align=center;verticalAlign=middle;whiteSpace=wrap;rounded=0;" vertex="1" parent="1">
          <mxGeometry x="240" y="530" width="20" height="20" as="geometry" />
        </mxCell>
        <mxCell id="PY2_DEi8Nq0LcXyKeN3E-54" value="{" style="text;html=1;align=center;verticalAlign=middle;whiteSpace=wrap;rounded=0;" vertex="1" parent="1">
          <mxGeometry x="225" y="490" width="20" height="20" as="geometry" />
        </mxCell>
        <mxCell id="PY2_DEi8Nq0LcXyKeN3E-55" value="1" style="text;html=1;align=center;verticalAlign=middle;whiteSpace=wrap;rounded=0;" vertex="1" parent="1">
          <mxGeometry x="235" y="490" width="20" height="20" as="geometry" />
        </mxCell>
        <mxCell id="PY2_DEi8Nq0LcXyKeN3E-56" value="}" style="text;html=1;align=center;verticalAlign=middle;whiteSpace=wrap;rounded=0;" vertex="1" parent="1">
          <mxGeometry x="260" y="570" width="20" height="20" as="geometry" />
        </mxCell>
        <mxCell id="PY2_DEi8Nq0LcXyKeN3E-61" value="0" style="text;html=1;align=center;verticalAlign=middle;whiteSpace=wrap;rounded=0;" vertex="1" parent="1">
          <mxGeometry x="330" y="460" width="20" height="20" as="geometry" />
        </mxCell>
        <mxCell id="PY2_DEi8Nq0LcXyKeN3E-65" style="edgeStyle=orthogonalEdgeStyle;rounded=0;orthogonalLoop=1;jettySize=auto;html=1;entryX=0.5;entryY=0;entryDx=0;entryDy=0;" edge="1" parent="1" source="PY2_DEi8Nq0LcXyKeN3E-63" target="PY2_DEi8Nq0LcXyKeN3E-64">
          <mxGeometry relative="1" as="geometry" />
        </mxCell>
        <mxCell id="PY2_DEi8Nq0LcXyKeN3E-63" value="cout &amp;lt;&amp;lt; &#39;\n&#39;;" style="shape=parallelogram;perimeter=parallelogramPerimeter;whiteSpace=wrap;html=1;fixedSize=1;" vertex="1" parent="1">
          <mxGeometry x="385" y="620" width="100" height="20" as="geometry" />
        </mxCell>
        <mxCell id="PY2_DEi8Nq0LcXyKeN3E-68" style="edgeStyle=orthogonalEdgeStyle;rounded=0;orthogonalLoop=1;jettySize=auto;html=1;entryX=0.5;entryY=0;entryDx=0;entryDy=0;" edge="1" parent="1" source="PY2_DEi8Nq0LcXyKeN3E-64" target="PY2_DEi8Nq0LcXyKeN3E-66">
          <mxGeometry relative="1" as="geometry" />
        </mxCell>
        <mxCell id="PY2_DEi8Nq0LcXyKeN3E-64" value="int tmp;" style="rounded=0;whiteSpace=wrap;html=1;" vertex="1" parent="1">
          <mxGeometry x="412" y="660" width="46" height="20" as="geometry" />
        </mxCell>
        <mxCell id="PY2_DEi8Nq0LcXyKeN3E-69" style="edgeStyle=orthogonalEdgeStyle;rounded=0;orthogonalLoop=1;jettySize=auto;html=1;entryX=0.5;entryY=0;entryDx=0;entryDy=0;" edge="1" parent="1" source="PY2_DEi8Nq0LcXyKeN3E-66" target="PY2_DEi8Nq0LcXyKeN3E-67">
          <mxGeometry relative="1" as="geometry" />
        </mxCell>
        <mxCell id="PY2_DEi8Nq0LcXyKeN3E-119" style="edgeStyle=orthogonalEdgeStyle;rounded=0;orthogonalLoop=1;jettySize=auto;html=1;entryX=0.5;entryY=0;entryDx=0;entryDy=0;" edge="1" parent="1" source="PY2_DEi8Nq0LcXyKeN3E-66" target="PY2_DEi8Nq0LcXyKeN3E-120">
          <mxGeometry relative="1" as="geometry">
            <mxPoint x="720" y="740" as="targetPoint" />
          </mxGeometry>
        </mxCell>
        <mxCell id="PY2_DEi8Nq0LcXyKeN3E-66" value="for (int i = 0; i &amp;lt; n; i++)" style="shape=hexagon;perimeter=hexagonPerimeter2;whiteSpace=wrap;html=1;fixedSize=1;" vertex="1" parent="1">
          <mxGeometry x="365" y="700" width="140" height="20" as="geometry" />
        </mxCell>
        <mxCell id="PY2_DEi8Nq0LcXyKeN3E-71" style="edgeStyle=orthogonalEdgeStyle;rounded=0;orthogonalLoop=1;jettySize=auto;html=1;entryX=0.5;entryY=0;entryDx=0;entryDy=0;" edge="1" parent="1" source="PY2_DEi8Nq0LcXyKeN3E-67" target="PY2_DEi8Nq0LcXyKeN3E-70">
          <mxGeometry relative="1" as="geometry" />
        </mxCell>
        <mxCell id="PY2_DEi8Nq0LcXyKeN3E-117" style="edgeStyle=orthogonalEdgeStyle;rounded=0;orthogonalLoop=1;jettySize=auto;html=1;entryX=0;entryY=0.5;entryDx=0;entryDy=0;" edge="1" parent="1" source="PY2_DEi8Nq0LcXyKeN3E-67" target="PY2_DEi8Nq0LcXyKeN3E-66">
          <mxGeometry relative="1" as="geometry">
            <mxPoint x="140" y="710" as="targetPoint" />
            <Array as="points">
              <mxPoint x="570" y="750" />
              <mxPoint x="570" y="1180" />
              <mxPoint x="150" y="1180" />
              <mxPoint x="150" y="710" />
            </Array>
          </mxGeometry>
        </mxCell>
        <mxCell id="PY2_DEi8Nq0LcXyKeN3E-67" value="for (int j = 0; j &amp;lt; m - 1 - i; j++)" style="shape=hexagon;perimeter=hexagonPerimeter2;whiteSpace=wrap;html=1;fixedSize=1;" vertex="1" parent="1">
          <mxGeometry x="350" y="740" width="170" height="20" as="geometry" />
        </mxCell>
        <mxCell id="PY2_DEi8Nq0LcXyKeN3E-75" style="edgeStyle=orthogonalEdgeStyle;rounded=0;orthogonalLoop=1;jettySize=auto;html=1;entryX=0.5;entryY=0;entryDx=0;entryDy=0;" edge="1" parent="1" source="PY2_DEi8Nq0LcXyKeN3E-70" target="PY2_DEi8Nq0LcXyKeN3E-74">
          <mxGeometry relative="1" as="geometry">
            <Array as="points">
              <mxPoint x="314" y="800" />
            </Array>
          </mxGeometry>
        </mxCell>
        <mxCell id="PY2_DEi8Nq0LcXyKeN3E-110" style="edgeStyle=orthogonalEdgeStyle;rounded=0;orthogonalLoop=1;jettySize=auto;html=1;" edge="1" parent="1" source="PY2_DEi8Nq0LcXyKeN3E-70">
          <mxGeometry relative="1" as="geometry">
            <mxPoint x="440" y="960" as="targetPoint" />
            <Array as="points">
              <mxPoint x="560" y="800" />
              <mxPoint x="560" y="960" />
            </Array>
          </mxGeometry>
        </mxCell>
        <mxCell id="PY2_DEi8Nq0LcXyKeN3E-70" value="if (mac[1][j] &amp;gt; mac[1][j + 1])" style="rhombus;whiteSpace=wrap;html=1;" vertex="1" parent="1">
          <mxGeometry x="335" y="780" width="200" height="40" as="geometry" />
        </mxCell>
        <mxCell id="PY2_DEi8Nq0LcXyKeN3E-83" style="edgeStyle=orthogonalEdgeStyle;rounded=0;orthogonalLoop=1;jettySize=auto;html=1;entryX=0.5;entryY=0;entryDx=0;entryDy=0;" edge="1" parent="1" source="PY2_DEi8Nq0LcXyKeN3E-72" target="PY2_DEi8Nq0LcXyKeN3E-82">
          <mxGeometry relative="1" as="geometry" />
        </mxCell>
        <mxCell id="PY2_DEi8Nq0LcXyKeN3E-72" value="mac[1][j + 1] = tmp;" style="rounded=0;whiteSpace=wrap;html=1;" vertex="1" parent="1">
          <mxGeometry x="259" y="910" width="110" height="20" as="geometry" />
        </mxCell>
        <mxCell id="PY2_DEi8Nq0LcXyKeN3E-78" style="edgeStyle=orthogonalEdgeStyle;rounded=0;orthogonalLoop=1;jettySize=auto;html=1;entryX=0.5;entryY=0;entryDx=0;entryDy=0;" edge="1" parent="1" source="PY2_DEi8Nq0LcXyKeN3E-73" target="PY2_DEi8Nq0LcXyKeN3E-72">
          <mxGeometry relative="1" as="geometry" />
        </mxCell>
        <mxCell id="PY2_DEi8Nq0LcXyKeN3E-73" value="mac[1][j] = mac[1][j + 1];" style="rounded=0;whiteSpace=wrap;html=1;" vertex="1" parent="1">
          <mxGeometry x="244" y="870" width="140" height="20" as="geometry" />
        </mxCell>
        <mxCell id="PY2_DEi8Nq0LcXyKeN3E-77" style="edgeStyle=orthogonalEdgeStyle;rounded=0;orthogonalLoop=1;jettySize=auto;html=1;entryX=0.5;entryY=0;entryDx=0;entryDy=0;" edge="1" parent="1" source="PY2_DEi8Nq0LcXyKeN3E-74" target="PY2_DEi8Nq0LcXyKeN3E-73">
          <mxGeometry relative="1" as="geometry" />
        </mxCell>
        <mxCell id="PY2_DEi8Nq0LcXyKeN3E-74" value="tmp = mac[1][j];" style="rounded=0;whiteSpace=wrap;html=1;" vertex="1" parent="1">
          <mxGeometry x="269" y="830" width="90" height="20" as="geometry" />
        </mxCell>
        <mxCell id="PY2_DEi8Nq0LcXyKeN3E-79" value="1" style="text;html=1;align=center;verticalAlign=middle;whiteSpace=wrap;rounded=0;" vertex="1" parent="1">
          <mxGeometry x="319" y="780" width="20" height="20" as="geometry" />
        </mxCell>
        <mxCell id="PY2_DEi8Nq0LcXyKeN3E-81" value="{" style="text;html=1;align=center;verticalAlign=middle;whiteSpace=wrap;rounded=0;" vertex="1" parent="1">
          <mxGeometry x="290" y="800" width="20" height="20" as="geometry" />
        </mxCell>
        <mxCell id="PY2_DEi8Nq0LcXyKeN3E-86" style="edgeStyle=orthogonalEdgeStyle;rounded=0;orthogonalLoop=1;jettySize=auto;html=1;entryX=0.5;entryY=0;entryDx=0;entryDy=0;" edge="1" parent="1" source="PY2_DEi8Nq0LcXyKeN3E-82" target="PY2_DEi8Nq0LcXyKeN3E-84">
          <mxGeometry relative="1" as="geometry" />
        </mxCell>
        <mxCell id="PY2_DEi8Nq0LcXyKeN3E-109" style="edgeStyle=orthogonalEdgeStyle;rounded=0;orthogonalLoop=1;jettySize=auto;html=1;" edge="1" parent="1" source="PY2_DEi8Nq0LcXyKeN3E-82">
          <mxGeometry relative="1" as="geometry">
            <mxPoint x="440" y="960" as="targetPoint" />
          </mxGeometry>
        </mxCell>
        <mxCell id="PY2_DEi8Nq0LcXyKeN3E-82" value="for (int k = 0; k &amp;lt; n; k++)" style="shape=hexagon;perimeter=hexagonPerimeter2;whiteSpace=wrap;html=1;fixedSize=1;" vertex="1" parent="1">
          <mxGeometry x="238.5" y="950" width="151" height="20" as="geometry" />
        </mxCell>
        <mxCell id="PY2_DEi8Nq0LcXyKeN3E-90" style="edgeStyle=orthogonalEdgeStyle;rounded=0;orthogonalLoop=1;jettySize=auto;html=1;entryX=0.5;entryY=0;entryDx=0;entryDy=0;" edge="1" parent="1" source="PY2_DEi8Nq0LcXyKeN3E-84" target="PY2_DEi8Nq0LcXyKeN3E-89">
          <mxGeometry relative="1" as="geometry">
            <Array as="points">
              <mxPoint x="250" y="1010" />
            </Array>
          </mxGeometry>
        </mxCell>
        <mxCell id="PY2_DEi8Nq0LcXyKeN3E-104" style="edgeStyle=orthogonalEdgeStyle;rounded=0;orthogonalLoop=1;jettySize=auto;html=1;" edge="1" parent="1" source="PY2_DEi8Nq0LcXyKeN3E-84">
          <mxGeometry relative="1" as="geometry">
            <mxPoint x="310" y="1150" as="targetPoint" />
            <Array as="points">
              <mxPoint x="371" y="1010" />
              <mxPoint x="371" y="1150" />
            </Array>
          </mxGeometry>
        </mxCell>
        <mxCell id="PY2_DEi8Nq0LcXyKeN3E-84" value="if (k != 1)" style="rhombus;whiteSpace=wrap;html=1;" vertex="1" parent="1">
          <mxGeometry x="279" y="990" width="70" height="40" as="geometry" />
        </mxCell>
        <mxCell id="PY2_DEi8Nq0LcXyKeN3E-103" style="edgeStyle=orthogonalEdgeStyle;rounded=0;orthogonalLoop=1;jettySize=auto;html=1;" edge="1" parent="1" source="PY2_DEi8Nq0LcXyKeN3E-87">
          <mxGeometry relative="1" as="geometry">
            <mxPoint x="310" y="1150" as="targetPoint" />
            <Array as="points">
              <mxPoint x="250" y="1150" />
            </Array>
          </mxGeometry>
        </mxCell>
        <mxCell id="PY2_DEi8Nq0LcXyKeN3E-87" value="mac[k][j + 1] = tmp;" style="rounded=0;whiteSpace=wrap;html=1;" vertex="1" parent="1">
          <mxGeometry x="195" y="1110" width="110" height="20" as="geometry" />
        </mxCell>
        <mxCell id="PY2_DEi8Nq0LcXyKeN3E-92" style="edgeStyle=orthogonalEdgeStyle;rounded=0;orthogonalLoop=1;jettySize=auto;html=1;entryX=0.5;entryY=0;entryDx=0;entryDy=0;" edge="1" parent="1" source="PY2_DEi8Nq0LcXyKeN3E-88" target="PY2_DEi8Nq0LcXyKeN3E-87">
          <mxGeometry relative="1" as="geometry" />
        </mxCell>
        <mxCell id="PY2_DEi8Nq0LcXyKeN3E-88" value="mac[k][j] = mac[k][j + 1];" style="rounded=0;whiteSpace=wrap;html=1;" vertex="1" parent="1">
          <mxGeometry x="180" y="1070" width="140" height="20" as="geometry" />
        </mxCell>
        <mxCell id="PY2_DEi8Nq0LcXyKeN3E-91" style="edgeStyle=orthogonalEdgeStyle;rounded=0;orthogonalLoop=1;jettySize=auto;html=1;entryX=0.5;entryY=0;entryDx=0;entryDy=0;" edge="1" parent="1" source="PY2_DEi8Nq0LcXyKeN3E-89" target="PY2_DEi8Nq0LcXyKeN3E-88">
          <mxGeometry relative="1" as="geometry" />
        </mxCell>
        <mxCell id="PY2_DEi8Nq0LcXyKeN3E-89" value="tmp = mac[k][j];" style="rounded=0;whiteSpace=wrap;html=1;" vertex="1" parent="1">
          <mxGeometry x="205" y="1030" width="90" height="20" as="geometry" />
        </mxCell>
        <mxCell id="PY2_DEi8Nq0LcXyKeN3E-93" value="1" style="text;html=1;align=center;verticalAlign=middle;whiteSpace=wrap;rounded=0;" vertex="1" parent="1">
          <mxGeometry x="250" y="990" width="20" height="20" as="geometry" />
        </mxCell>
        <mxCell id="PY2_DEi8Nq0LcXyKeN3E-94" value="{" style="text;html=1;align=center;verticalAlign=middle;whiteSpace=wrap;rounded=0;" vertex="1" parent="1">
          <mxGeometry x="230" y="1010" width="20" height="20" as="geometry" />
        </mxCell>
        <mxCell id="PY2_DEi8Nq0LcXyKeN3E-95" value="{" style="text;html=1;align=center;verticalAlign=middle;whiteSpace=wrap;rounded=0;" vertex="1" parent="1">
          <mxGeometry x="279" y="970" width="20" height="20" as="geometry" />
        </mxCell>
        <mxCell id="PY2_DEi8Nq0LcXyKeN3E-96" value="1" style="text;html=1;align=center;verticalAlign=middle;whiteSpace=wrap;rounded=0;" vertex="1" parent="1">
          <mxGeometry x="295" y="970" width="20" height="20" as="geometry" />
        </mxCell>
        <mxCell id="PY2_DEi8Nq0LcXyKeN3E-97" value="1" style="text;html=1;align=center;verticalAlign=middle;whiteSpace=wrap;rounded=0;" vertex="1" parent="1">
          <mxGeometry x="414" y="760" width="20" height="20" as="geometry" />
        </mxCell>
        <mxCell id="PY2_DEi8Nq0LcXyKeN3E-98" value="1" style="text;html=1;align=center;verticalAlign=middle;whiteSpace=wrap;rounded=0;" vertex="1" parent="1">
          <mxGeometry x="414" y="720" width="20" height="20" as="geometry" />
        </mxCell>
        <mxCell id="PY2_DEi8Nq0LcXyKeN3E-99" value="{" style="text;html=1;align=center;verticalAlign=middle;whiteSpace=wrap;rounded=0;" vertex="1" parent="1">
          <mxGeometry x="404" y="720" width="20" height="20" as="geometry" />
        </mxCell>
        <mxCell id="PY2_DEi8Nq0LcXyKeN3E-100" value="{" style="text;html=1;align=center;verticalAlign=middle;whiteSpace=wrap;rounded=0;" vertex="1" parent="1">
          <mxGeometry x="404" y="760" width="20" height="20" as="geometry" />
        </mxCell>
        <mxCell id="PY2_DEi8Nq0LcXyKeN3E-105" value="" style="endArrow=classic;html=1;rounded=0;entryX=0;entryY=0.5;entryDx=0;entryDy=0;" edge="1" parent="1" target="PY2_DEi8Nq0LcXyKeN3E-82">
          <mxGeometry width="50" height="50" relative="1" as="geometry">
            <mxPoint x="310" y="1150" as="sourcePoint" />
            <mxPoint x="180" y="960" as="targetPoint" />
            <Array as="points">
              <mxPoint x="310" y="1160" />
              <mxPoint x="170" y="1160" />
              <mxPoint x="170" y="960" />
            </Array>
          </mxGeometry>
        </mxCell>
        <mxCell id="PY2_DEi8Nq0LcXyKeN3E-106" value="}" style="text;html=1;align=center;verticalAlign=middle;whiteSpace=wrap;rounded=0;" vertex="1" parent="1">
          <mxGeometry x="365" y="590" width="20" height="20" as="geometry" />
        </mxCell>
        <mxCell id="PY2_DEi8Nq0LcXyKeN3E-107" value="}" style="text;html=1;align=center;verticalAlign=middle;whiteSpace=wrap;rounded=0;" vertex="1" parent="1">
          <mxGeometry x="255" y="1130" width="20" height="20" as="geometry" />
        </mxCell>
        <mxCell id="PY2_DEi8Nq0LcXyKeN3E-111" value="0" style="text;html=1;align=center;verticalAlign=middle;whiteSpace=wrap;rounded=0;" vertex="1" parent="1">
          <mxGeometry x="535" y="780" width="20" height="20" as="geometry" />
        </mxCell>
        <mxCell id="PY2_DEi8Nq0LcXyKeN3E-112" value="0" style="text;html=1;align=center;verticalAlign=middle;whiteSpace=wrap;rounded=0;" vertex="1" parent="1">
          <mxGeometry x="389.5" y="940" width="20" height="20" as="geometry" />
        </mxCell>
        <mxCell id="PY2_DEi8Nq0LcXyKeN3E-113" value="0" style="text;html=1;align=center;verticalAlign=middle;whiteSpace=wrap;rounded=0;" vertex="1" parent="1">
          <mxGeometry x="520" y="720" width="20" height="20" as="geometry" />
        </mxCell>
        <mxCell id="PY2_DEi8Nq0LcXyKeN3E-114" value="0" style="text;html=1;align=center;verticalAlign=middle;whiteSpace=wrap;rounded=0;" vertex="1" parent="1">
          <mxGeometry x="657" y="880" width="20" height="20" as="geometry" />
        </mxCell>
        <mxCell id="PY2_DEi8Nq0LcXyKeN3E-115" value="}" style="text;html=1;align=center;verticalAlign=middle;whiteSpace=wrap;rounded=0;" vertex="1" parent="1">
          <mxGeometry x="315" y="1150" width="20" height="20" as="geometry" />
        </mxCell>
        <mxCell id="PY2_DEi8Nq0LcXyKeN3E-116" value="" style="endArrow=classic;html=1;rounded=0;entryX=0;entryY=0.5;entryDx=0;entryDy=0;" edge="1" parent="1" target="PY2_DEi8Nq0LcXyKeN3E-67">
          <mxGeometry width="50" height="50" relative="1" as="geometry">
            <mxPoint x="440" y="960" as="sourcePoint" />
            <mxPoint x="200" y="760" as="targetPoint" />
            <Array as="points">
              <mxPoint x="440" y="1170" />
              <mxPoint x="160" y="1170" />
              <mxPoint x="160" y="750" />
            </Array>
          </mxGeometry>
        </mxCell>
        <mxCell id="PY2_DEi8Nq0LcXyKeN3E-118" value="}" style="text;html=1;align=center;verticalAlign=middle;whiteSpace=wrap;rounded=0;" vertex="1" parent="1">
          <mxGeometry x="438" y="1150" width="20" height="20" as="geometry" />
        </mxCell>
        <mxCell id="PY2_DEi8Nq0LcXyKeN3E-157" style="edgeStyle=orthogonalEdgeStyle;rounded=0;orthogonalLoop=1;jettySize=auto;html=1;entryX=0.5;entryY=0;entryDx=0;entryDy=0;" edge="1" parent="1" source="PY2_DEi8Nq0LcXyKeN3E-120" target="PY2_DEi8Nq0LcXyKeN3E-126">
          <mxGeometry relative="1" as="geometry" />
        </mxCell>
        <mxCell id="PY2_DEi8Nq0LcXyKeN3E-120" value="cout &amp;lt;&amp;lt; &quot;Конечная матрица: &quot; &amp;lt;&amp;lt; endl;" style="shape=parallelogram;perimeter=parallelogramPerimeter;whiteSpace=wrap;html=1;fixedSize=1;" vertex="1" parent="1">
          <mxGeometry x="600" y="740" width="240" height="20" as="geometry" />
        </mxCell>
        <mxCell id="PY2_DEi8Nq0LcXyKeN3E-121" value="0" style="text;html=1;align=center;verticalAlign=middle;whiteSpace=wrap;rounded=0;" vertex="1" parent="1">
          <mxGeometry x="799" y="810" width="20" height="20" as="geometry" />
        </mxCell>
        <mxCell id="PY2_DEi8Nq0LcXyKeN3E-122" style="edgeStyle=orthogonalEdgeStyle;rounded=0;orthogonalLoop=1;jettySize=auto;html=1;entryX=0.5;entryY=0;entryDx=0;entryDy=0;" edge="1" source="PY2_DEi8Nq0LcXyKeN3E-124" target="PY2_DEi8Nq0LcXyKeN3E-128" parent="1">
          <mxGeometry relative="1" as="geometry" />
        </mxCell>
        <mxCell id="PY2_DEi8Nq0LcXyKeN3E-123" style="edgeStyle=orthogonalEdgeStyle;rounded=0;orthogonalLoop=1;jettySize=auto;html=1;entryX=0.5;entryY=0;entryDx=0;entryDy=0;" edge="1" source="PY2_DEi8Nq0LcXyKeN3E-124" target="PY2_DEi8Nq0LcXyKeN3E-130" parent="1">
          <mxGeometry relative="1" as="geometry">
            <mxPoint x="820" y="880" as="targetPoint" />
            <Array as="points">
              <mxPoint x="824" y="830" />
            </Array>
          </mxGeometry>
        </mxCell>
        <mxCell id="PY2_DEi8Nq0LcXyKeN3E-124" value="for (int h = 0; h &amp;lt; m; h++)" style="shape=hexagon;perimeter=hexagonPerimeter2;whiteSpace=wrap;html=1;fixedSize=1;" vertex="1" parent="1">
          <mxGeometry x="639" y="820" width="160" height="20" as="geometry" />
        </mxCell>
        <mxCell id="PY2_DEi8Nq0LcXyKeN3E-125" style="edgeStyle=orthogonalEdgeStyle;rounded=0;orthogonalLoop=1;jettySize=auto;html=1;" edge="1" source="PY2_DEi8Nq0LcXyKeN3E-126" target="PY2_DEi8Nq0LcXyKeN3E-124" parent="1">
          <mxGeometry relative="1" as="geometry" />
        </mxCell>
        <mxCell id="PY2_DEi8Nq0LcXyKeN3E-158" style="edgeStyle=orthogonalEdgeStyle;rounded=0;orthogonalLoop=1;jettySize=auto;html=1;entryX=0.5;entryY=0;entryDx=0;entryDy=0;" edge="1" parent="1" source="PY2_DEi8Nq0LcXyKeN3E-126" target="PY2_DEi8Nq0LcXyKeN3E-159">
          <mxGeometry relative="1" as="geometry">
            <mxPoint x="880" y="930" as="targetPoint" />
          </mxGeometry>
        </mxCell>
        <mxCell id="PY2_DEi8Nq0LcXyKeN3E-126" value="for (int k = 0; k &amp;lt; n; k++)" style="shape=hexagon;perimeter=hexagonPerimeter2;whiteSpace=wrap;html=1;fixedSize=1;" vertex="1" parent="1">
          <mxGeometry x="645" y="780" width="150" height="20" as="geometry" />
        </mxCell>
        <mxCell id="PY2_DEi8Nq0LcXyKeN3E-127" style="edgeStyle=orthogonalEdgeStyle;rounded=0;orthogonalLoop=1;jettySize=auto;html=1;entryX=0;entryY=0.5;entryDx=0;entryDy=0;" edge="1" source="PY2_DEi8Nq0LcXyKeN3E-128" target="PY2_DEi8Nq0LcXyKeN3E-124" parent="1">
          <mxGeometry relative="1" as="geometry">
            <mxPoint x="620" y="840" as="targetPoint" />
            <Array as="points">
              <mxPoint x="719" y="900" />
              <mxPoint x="619" y="900" />
              <mxPoint x="619" y="830" />
            </Array>
          </mxGeometry>
        </mxCell>
        <mxCell id="PY2_DEi8Nq0LcXyKeN3E-128" value="cout &amp;lt;&amp;lt; mac[k][h] &amp;lt;&amp;lt; &#39; &#39;;" style="shape=parallelogram;perimeter=parallelogramPerimeter;whiteSpace=wrap;html=1;fixedSize=1;" vertex="1" parent="1">
          <mxGeometry x="639" y="860" width="160" height="20" as="geometry" />
        </mxCell>
        <mxCell id="PY2_DEi8Nq0LcXyKeN3E-129" style="edgeStyle=orthogonalEdgeStyle;rounded=0;orthogonalLoop=1;jettySize=auto;html=1;entryX=0;entryY=0.5;entryDx=0;entryDy=0;" edge="1" source="PY2_DEi8Nq0LcXyKeN3E-130" target="PY2_DEi8Nq0LcXyKeN3E-126" parent="1">
          <mxGeometry relative="1" as="geometry">
            <mxPoint x="640" y="790" as="targetPoint" />
            <Array as="points">
              <mxPoint x="824" y="920" />
              <mxPoint x="610" y="920" />
              <mxPoint x="610" y="790" />
            </Array>
          </mxGeometry>
        </mxCell>
        <mxCell id="PY2_DEi8Nq0LcXyKeN3E-130" value="cout &amp;lt;&amp;lt; &#39;\n&#39;;" style="shape=parallelogram;perimeter=parallelogramPerimeter;whiteSpace=wrap;html=1;fixedSize=1;" vertex="1" parent="1">
          <mxGeometry x="774" y="880" width="100" height="20" as="geometry" />
        </mxCell>
        <mxCell id="PY2_DEi8Nq0LcXyKeN3E-131" value="{" style="text;html=1;align=center;verticalAlign=middle;whiteSpace=wrap;rounded=0;" vertex="1" parent="1">
          <mxGeometry x="690" y="840" width="20" height="20" as="geometry" />
        </mxCell>
        <mxCell id="PY2_DEi8Nq0LcXyKeN3E-132" value="1" style="text;html=1;align=center;verticalAlign=middle;whiteSpace=wrap;rounded=0;" vertex="1" parent="1">
          <mxGeometry x="700" y="840" width="20" height="20" as="geometry" />
        </mxCell>
        <mxCell id="PY2_DEi8Nq0LcXyKeN3E-133" value="{" style="text;html=1;align=center;verticalAlign=middle;whiteSpace=wrap;rounded=0;" vertex="1" parent="1">
          <mxGeometry x="685" y="800" width="20" height="20" as="geometry" />
        </mxCell>
        <mxCell id="PY2_DEi8Nq0LcXyKeN3E-134" value="1" style="text;html=1;align=center;verticalAlign=middle;whiteSpace=wrap;rounded=0;" vertex="1" parent="1">
          <mxGeometry x="695" y="800" width="20" height="20" as="geometry" />
        </mxCell>
        <mxCell id="PY2_DEi8Nq0LcXyKeN3E-135" value="}" style="text;html=1;align=center;verticalAlign=middle;whiteSpace=wrap;rounded=0;" vertex="1" parent="1">
          <mxGeometry x="720" y="880" width="20" height="20" as="geometry" />
        </mxCell>
        <mxCell id="PY2_DEi8Nq0LcXyKeN3E-136" value="0" style="text;html=1;align=center;verticalAlign=middle;whiteSpace=wrap;rounded=0;" vertex="1" parent="1">
          <mxGeometry x="790" y="770" width="20" height="20" as="geometry" />
        </mxCell>
        <mxCell id="PY2_DEi8Nq0LcXyKeN3E-137" value="}" style="text;html=1;align=center;verticalAlign=middle;whiteSpace=wrap;rounded=0;" vertex="1" parent="1">
          <mxGeometry x="825" y="900" width="20" height="20" as="geometry" />
        </mxCell>
        <mxCell id="PY2_DEi8Nq0LcXyKeN3E-159" value="return 0;" style="ellipse;whiteSpace=wrap;html=1;" vertex="1" parent="1">
          <mxGeometry x="860" y="930" width="60" height="30" as="geometry" />
        </mxCell>
        <mxCell id="PY2_DEi8Nq0LcXyKeN3E-160" value="}" style="text;html=1;align=center;verticalAlign=middle;whiteSpace=wrap;rounded=0;" vertex="1" parent="1">
          <mxGeometry x="920" y="935" width="20" height="20" as="geometry" />
        </mxCell>
      </root>
    </mxGraphModel>
  </diagram>
</mxfile>
